<?xml version="1.0" standalone="no"?>
<!DOCTYPE svg PUBLIC "-//W3C//DTD SVG 20010904//EN"
 "http://www.w3.org/TR/2001/REC-SVG-20010904/DTD/svg10.dtd">
<svg version="1.0" xmlns="http://www.w3.org/2000/svg"
 width="62.000000pt" height="62.000000pt" viewBox="0 0 62.000000 62.000000"
 preserveAspectRatio="xMidYMid meet">

<g transform="translate(0.000000,62.000000) scale(0.100000,-0.100000)"
fill="#000000" stroke="none">
<path d="M150 463 c-77 -76 -140 -145 -140 -153 0 -19 281 -300 300 -300 19 0
300 281 300 300 0 24 -273 290 -297 290 -14 0 -70 -47 -163 -137z m200 -13
c26 -26 27 -44 1 -30 -25 13 -68 13 -76 0 -4 -6 -11 -8 -16 -4 -15 9 30 54 53
54 10 0 27 -9 38 -20z m-158 -125 c-5 -60 14 -87 42 -60 18 18 22 95 6 95 -5
0 -10 4 -10 9 0 6 8 9 18 8 16 -1 18 -8 14 -52 -6 -64 -17 -85 -45 -85 -38 0
-51 16 -57 75 -7 63 -8 61 18 61 16 0 18 -7 14 -51z m140 -17 l3 -68 -29 0
c-24 0 -27 2 -16 15 8 10 11 34 8 68 -4 45 -2 53 13 53 15 0 18 -12 21 -68z
m111 53 c9 -9 9 -16 0 -30 -10 -15 -9 -22 2 -31 8 -7 15 -16 15 -21 0 -19 -34
-39 -68 -39 l-37 0 0 68 0 69 38 -2 c21 -1 44 -8 50 -14z m-84 -184 c23 6 25
5 12 -10 -15 -19 -61 -23 -61 -6 0 8 -4 8 -14 0 -10 -9 -16 -9 -21 -1 -5 8
-11 8 -21 -1 -18 -15 -18 2 1 27 13 16 16 17 25 4 9 -13 12 -12 22 5 11 19 12
19 21 -3 8 -17 15 -20 36 -15z"/>
<path d="M390 339 c0 -24 23 -21 28 4 2 10 -3 17 -12 17 -10 0 -16 -9 -16 -21z"/>
<path d="M390 280 c0 -21 4 -30 13 -27 6 2 12 14 12 27 0 13 -6 25 -12 28 -9
2 -13 -7 -13 -28z"/>
</g>
</svg>
